<svg xmlns="http://www.w3.org/2000/svg" viewBox="0 0 320 320">
  <rect width="320" height="320" fill="#f0f3f9" />
  <circle cx="160" cy="120" r="70" fill="#fce7d8" />
  <path d="M100 240c20-34 52-52 60-52s40 18 60 52v40H100z" fill="#2f3a4a" />
  <path d="M120 116c0-28 20-52 40-52s40 24 40 52v18c0 22-18 40-40 40s-40-18-40-40z" fill="#fce7d8" />
  <path d="M115 108c6-38 30-62 45-62s39 18 45 62c-14-18-32-28-45-28s-31 10-45 28z" fill="#2f3a4a" />
  <path d="M124 198c14 6 24 10 36 10s22-4 36-10c-6 26-22 40-36 40s-30-14-36-40z" fill="#d8a35d" />
  <path d="M98 240h124l12 40H86z" fill="#1b2330" />
</svg>
