<svg xmlns="http://www.w3.org/2000/svg" xmlns:xlink="http://www.w3.org/1999/xlink" viewBox="0 0 420 420">
  <defs>
    <linearGradient id="gold" x1="0%" y1="0%" x2="100%" y2="100%">
      <stop offset="0%" stop-color="#e2c06b" />
      <stop offset="100%" stop-color="#b38728" />
    </linearGradient>
    <linearGradient id="steel" x1="0%" y1="0%" x2="0%" y2="100%">
      <stop offset="0%" stop-color="#3f4a5e" />
      <stop offset="100%" stop-color="#222937" />
    </linearGradient>
    <path
      id="leaf"
      d="M0 0c8-4 16-12 22-22-8-6-14-18-16-34-2 16-8 28-16 34 6 10 14 18 22 22z"
      fill="url(#gold)"
      stroke="#b38728"
      stroke-width="3"
      stroke-linejoin="round"
    />
  </defs>
  <rect width="420" height="420" rx="36" fill="#f6f1e6" />
  <g fill="none" stroke="#b38728" stroke-width="10">
    <circle cx="210" cy="180" r="150" />
  </g>
  <g fill="none" stroke="#222937" stroke-width="6">
    <circle cx="210" cy="180" r="132" />
  </g>
  <g transform="translate(210 180)">
    <g>
      <use xlink:href="#leaf" transform="rotate(-70) translate(0 -156) scale(1.2)" />
      <use xlink:href="#leaf" transform="rotate(-55) translate(0 -156) scale(1.2)" />
      <use xlink:href="#leaf" transform="rotate(-40) translate(0 -156) scale(1.2)" />
      <use xlink:href="#leaf" transform="rotate(-25) translate(0 -156) scale(1.2)" />
      <use xlink:href="#leaf" transform="rotate(-10) translate(0 -156) scale(1.2)" />
    </g>
    <g transform="scale(-1 1)">
      <use xlink:href="#leaf" transform="rotate(-70) translate(0 -156) scale(1.2)" />
      <use xlink:href="#leaf" transform="rotate(-55) translate(0 -156) scale(1.2)" />
      <use xlink:href="#leaf" transform="rotate(-40) translate(0 -156) scale(1.2)" />
      <use xlink:href="#leaf" transform="rotate(-25) translate(0 -156) scale(1.2)" />
      <use xlink:href="#leaf" transform="rotate(-10) translate(0 -156) scale(1.2)" />
    </g>
  </g>
  <g transform="translate(210 182)">
    <path
      d="M0-118c42.5 0 78.6 22.7 92.5 58.8l-24.1 8.4c-10.1-26.9-36.2-43.4-68.4-43.4s-58.3 16.5-68.4 43.4l-24.1-8.4C-78.6-95.3-42.5-118 0-118z"
      fill="#222937"
    />
    <path
      d="M0-104c28.9 0 52.4 23.5 52.4 52.4v42.2c0 31.9-16.9 61.7-44.8 79.2l-7.6 4.8-7.6-4.8c-27.9-17.5-44.8-47.3-44.8-79.2V-51.6C-52.4-80.5-28.9-104 0-104z"
      fill="#fdfbf6"
      stroke="#222937"
      stroke-width="9"
      stroke-linejoin="round"
    />
    <path
      d="M0-102c-15.7 0-28.5 12.8-28.5 28.5v38.1L0-12.4 28.5-35.4v-38.1C28.5-89.2 15.7-102 0-102z"
      fill="url(#steel)"
    />
    <path
      d="M-50-12h100v30l-20 16-30-16-30 16-20-16z"
      fill="url(#gold)"
      stroke="#222937"
      stroke-width="8"
      stroke-linejoin="round"
    />
    <path
      d="M0 60c-33 0-60 27-60 60v14h120v-14c0-33-27-60-60-60z"
      fill="url(#gold)"
      stroke="#222937"
      stroke-width="8"
      stroke-linejoin="round"
    />
  </g>
  <g transform="translate(210 330)" text-anchor="middle">
    <text y="0" font-family="'Playfair Display', serif" font-size="48" fill="#222937" letter-spacing="0.28em">
      TROIA
    </text>
    <text y="42" font-family="'Montserrat', sans-serif" font-size="20" fill="#b38728" letter-spacing="0.48em">
      CONSTRUCTION
    </text>
  </g>
</svg>
