<?xml version="1.0" encoding="UTF-8"?>
<svg version="1.1" viewBox="0 0 2048 716" width="1500" height="525" xmlns="http://www.w3.org/2000/svg">
<path transform="translate(283,126)" d="m0 0h94l12 3 14 7 10 9 9 12 7 16 5 18 3 23 1 24 9 10 9 14 7 16 3 12 1 7 1 23 5 4 2 6v17l-4 16-5 13 1 13 6 25 8 20 6 12v2h-23l9 27-2 5-9 10-8 8-8 7-17 16-10 9-13 12-12 11-11 9-7 7-8 7-6 5v-168l13-6 20-9 22-11 1-1 1-31-5-3-6 1-52 26h-2l2 21v6l-9 11-11 13-2 2-4-1-11-14-8-10 1-12 2-16-5-2-26-14-20-12-5 1v32l24 15 24 13 1 1v33l-1 84-1 50-5-5-12-14-13-14-7-8-9-10-9-11-11-12-11-14-7-11-2-4 1-9 13-37 3-12 1-11-3-11-1-33-7-20-2-12v-11l1-8 7-4 5-24 6-16 6-11 10-13 12-12 14-10 16-8 11-4h2l-3-22-6-17-9-20-13-24zm68 8 6 37 2 12 7-1 2-1v-12l-2-34-1-1zm-53 1 2 5 11 23 9 23h10l-1-9-8-28-5-14zm41-1-17 1 9 28 5 20 1 2h13l-1-17-5-30-2-4zm33 1 2 45h9l1-13 1-29-8-3zm19 5-2 31v11l5 2h3l4-29v-10zm16 12-2 11-3 20v5l6 5 5-18 2-10-1-5-6-8zm11 20-5 26 1 4 2 3h2l6-16-1-9-4-8zm-48 17-10 3-1 1v27l5-2 9-6 7-3 9 1 20 8 6 2-3-7-6-10-8-8-9-5-4-1zm-48 5 2 29 1 1h26v-30zm103 6-4 10 1 8 5 8h2v-12l-2-13zm-47 18-9 6-9 8-45 1v-13l-14 5-13 7-13 10-12 12-10 15-5 11-4 13-1 10 6-2 25-14 21-14 13-10 14-12 11-11 7 6 11 10 20 15 22 14 22 12 23 11 20 8h1v-10l-2-16-4-13-8-16-9-12-12-12-14-9-15-7-10-3zm-46 34-12 12-14 11-18 13-15 9-25 14-14 7-1 2v11l3 14 3 9 12-7 9-6 5 1 26 15 24 13 7 4v12l-2 17 12 16 3-1 8-10 3-4-1-23-1-7 6-2 28-14 23-11 9-5 5 1 27 13 16 10h2l5-16 1-6v-12l-4-5-37-16-26-13-20-12-12-8-16-12-14-12-2-2zm-85 106-4 3v33l4 6 12 13 7 8 11 12 1 1v49l-1 27v25l18 20h1l1-38 1-98-9-6-18-10-18-11-3-2-1-28-1-4zm181 0-1 34-27 14-29 13v140l4-2 7-7 11-9 1-1v-107l16-11 21-16 15-11 3-2 3-22-13-8-9-5zm29 36-3 16 2 17 4 12 13 1-1-5-7-19-7-22zm-13 12-12 10-20 15-9 7v92l4-2 13-12 11-10 6-5v-65l3-3v-2h2l1 11 2 11 1 37h3l14-14-3-11-10-31-3-13-1-15zm-198 8-4 17-10 30-4 10 1 5 6 10 5 4 1-26 5-19v-5l3 2-1 59 11 13 8 9h1l1-11 1-30v-44l-15-16-7-8z" fill="#444747"/>
<path transform="translate(991,167)" d="m0 0h126l24 8 16 10 5 4 11 17 2 8 3 20-4 20-11 18-6 8-8 7-8 6-6 3 3 9 7 11 16 23 12 17 11 15 8 8 7 8 4 4v2l4 2 15 9 8 5v6l-1 2-4 1h-21l-12-1-26-9-15-14-7-8-14-19-15-24-9-14-11-15-36-3 1 18 1 39 1 22 3 6v2l5 2 18 6-1 8-2 3-93-2-2-2 3-9 17-5 4-4 2-12v-191l-4-8-18-6-5-3 1-7zm69 17-1 1-1 26-1 49v29l3 3h42l15-8 10-12 5-10 2-6v-29l-8-22-12-12-16-8-6-1z" fill="#424545"/>
<path transform="translate(1371,161)" d="m0 0h22l34 6 20 9 22 14 15 15 13 21 5 11 5 14 3 18v37l-6 26-8 20-11 18-7 9-13 13-23 14-10 5-18 6-28 4-33-2-25-6-23-11-11-7-7-7-8-7-6-7-12-18-9-23-4-17v-50l11-34 12-19 9-10 7-8 16-12 28-14 25-6zm-11 19-21 6-16 12-7 5-11 18-5 10-6 18-2 15v36l4 22 10 28 13 19 9 11 9 7 15 9 22 6h23l16-4 19-10 11-10 11-18 9-27 2-16v-24l-1-16-6-28-10-24-12-17-6-7-13-10-17-8-15-3z" fill="#424545"/>
<path transform="translate(1818,161)" d="m0 0 9 3 34 85 16 41 17 43 15 37 7 17 10 10 17 8 3 3 1 5-5 4h-90l-3-7 2-4 2-2 16-4-4-21-18-49-69-2-10-1-3 11-11 31-6 16v11l10 6 10 4 2 5-3 5-5 1-74-2-1-1v-8l25-11 16-32 43-108 22-55 11-28 4-5zm-13 63-20 53-8 19v8l1 4 2 1h55l3-3 1-6-16-45-10-27-2-3z" fill="#424545"/>
<path transform="translate(331,33)" d="m0 0h36l31 3 26 5 25 7 23 8 20 9 23 12 27 18 13 10 13 11 13 12 13 13 9 11 13 17 10 15 12 21 14 29 10 28 6 23 5 25 3 31v35l-3 30-6 29-6 21-8 23-9 20-12 23-12 19-13 17-9 11-9 10-7 8-8 8-8 7-13 11-18 13-19 12-18 10-19 9-27 10-25 7-25 5-27 3h-51l-31-4-23-5-24-7-25-9-25-12-27-16-19-14-11-9-14-12-16-16-9-11-10-12-12-17-12-19-14-27-10-25-8-26-5-22-4-27-2-30 1-29 3-26 5-25 7-25 7-19 9-20 13-25 13-20 14-19 9-10 7-8 20-20 11-9 18-14 20-13 18-10 16-8 24-10 22-7 29-7 28-4zm-2 9-27 3-26 5-28 8-25 10-25 12-20 12-16 11-10 8-13 11-8 7-17 17-9 11-12 15-16 24-10 18-10 21-10 27-6 21-5 26-3 26-1 28 2 29 4 26 6 26 8 24 11 26 10 19 12 19 10 14 11 14 9 10 7 8 11 11 8 7 13 11 18 13 18 11 20 11 26 11 27 9 26 6 27 4 12 1h46l27-3 29-6 29-9 17-7 25-12 19-11 16-11 13-10 15-13 16-15 12-14 14-17 16-24 10-18 10-21 9-24 8-27 5-26 3-29v-37l-3-29-6-29-7-24-11-28-11-22-10-17-13-19-10-13-9-10-7-8-14-14-11-9-12-10-17-12-18-11-23-12-21-9-30-10-26-6-27-4-11-1z" fill="#444747"/>
<path transform="translate(724,161)" d="m0 0 21 3 83 1h29l76-1 11-1 1 1v44l-2 11h-11l-7-22-9-6-16-2-37-2-10-1 1 33 1 98 1 71 3 10 9 2 12 4 4 7v2l-9 4h-90l-2-6v-5l15-5 9-6 4-14v-192h-59l-13 6-12 24h-9v-26l4-28z" fill="#424545"/>
<path transform="translate(329,94)" d="m0 0h41l24 3 23 5 22 7 24 10 20 11 14 9 15 11 14 12 22 22 13 17 10 14 13 23 7 15 8 21 6 21 5 26 2 20v32l-3 26-6 27-9 27-14 29-10 17-10 14-8 10-12 14-14 14-11 9-13 10-17 11-16 9-21 10-33 11-22 5-24 3h-38l-24-3-23-5-30-10-31-15-18-11-19-14-15-13-18-18-11-14-11-15-12-20-8-16-9-21-7-23-5-26-2-18v-42l3-23 5-24 9-27 11-24 9-16 12-18 10-13 12-14 15-15 11-9 13-10 15-10 18-10 19-9 19-7 22-6 22-4zm0 9-23 3-26 6-26 9-27 13-19 12-17 13-13 11-16 16-9 11-12 16-12 19-9 17-10 25-7 23-5 26-2 26v11l2 27 4 24 6 22 7 19 14 29 16 24 11 14 12 13 5 6 8 7 14 12 19 13 17 10 25 12 30 10 23 5 12 2 12 1h33l19-2 29-6 27-9 20-9 17-9 18-12 14-11 14-12 13-13 9-11 8-10 14-21 14-27 8-21 6-20 5-25 2-19v-34l-3-23-5-25-9-27-11-24-11-19-11-16-9-11-12-14-10-10-22-18-18-12-16-9-23-11-24-8-20-5-28-4z" fill="#444747"/>
<path transform="translate(1558,167)" d="m0 0h97l1 2-2 9-17 4-5 5-2 8v183l2 16 12 8 13 4 1 1v7l-4 1-93 2-3-8v-3l20-7 5-5 1-3v-201l-5-7-16-4-3-1z" fill="#424545"/>
<path transform="translate(961,471)" d="m0 0h18l15 15 11 14 13 15 8 10v4h4l-1-50-5-4v-4h22l-1 5-4 3-2 63-1 11-8-1-12-14-9-11-12-14-11-13-3-6h-2l-1 54 6 2 2 1v3h-24l2-4 3-5v-64l-7-5z" fill="#989896"/>
<path transform="translate(1856,471)" d="m0 0h15l12 12 7 8 9 10v5l5 1 10 11 8 10 2 1-1-52-7-2 1-4h21l-1 5-5 1v76l-8-1-16-17-9-11-12-14-9-11-5-5v50l7 8-1 2h-23v-2l5-5v-68l-5-3-1-4z" fill="#989896"/>
<path transform="translate(1264,471)" d="m0 0h36l17 6 6 9v15l-9 13-3 1 6 11 10 15 10 11-1 2h-13l-12-13-8-10-6-9-11-1 1 26 4 5v2h-27v-3l2-3h5l-2-53-1-17-5-6zm21 6-1 1v34h19l7-9v-10l-2-9-9-7z" fill="#999997"/>
<path transform="translate(1775,471)" d="m0 0h27l16 9 6 5 5 10 1 3v27l-7 14-14 12-9 3h-27l-11-6-8-6-8-13-1-3v-25l11-19 11-8zm8 4-13 6-9 11-1 2v30l8 16 11 8 7 1h11l11-6 7-10 2-7 1-12-4-18-6-11-10-8-9-2z" fill="#989896"/>
<path transform="translate(1364,471)" d="m0 0h26v5l-1 1h-6l1 42 2 18 8 8 7 1h10l12-6 3-9v-49l-7-8 1-2 4-1h18l-1 7-3 1-2 52-2 8-5 9-11 6-21 2-18-6-8-12-1-11-2-46-5-3z" fill="#989897"/>
<path transform="translate(877,471)" d="m0 0h23l16 8 10 12 4 11v18l-7 18-7 7-9 7-24 4-15-4-11-7-6-7-5-8-1-3v-25l8-16 6-7zm4 4-14 6-8 15v28l6 11 4 6 7 7 7 2h13l9-5 5-4 6-13 1-6v-13l-3-15-9-11-6-5-14-3z" fill="#989896"/>
<path transform="translate(394,624)" d="m0 0 5 1 5 30-1 5-29 4h-11l-1-3-1-18 1-1 18-1v-7l-18 2h-7l1 15v13l-1 1h-13l-28-2-1-1 1-12 2-10 19 2v-7l-16-1-9-1-1 15-2 13-4 1-4-2 6-35 31 3 6 1v21l-2 1-19-2v7l27 2v-15l1-14 28-2 8-1 3 17v5l-20 2 2 7 27-3-3-14-1-7v-8z" fill="#757776"/>
<path transform="translate(771,471)" d="m0 0h32l8 4 1 1v15l-4-2-11-9-10-2h-7l-12 4-8 9-3 5-1 4v22l8 17 9 6 10 2h9l6-2 13-7 3 1-2 10-5 4-12 2-16 1-17-4-13-9-5-6-4-8-1-4v-23l7-14 9-9z" fill="#999997"/>
<path transform="translate(1578,471)" d="m0 0h24l35 1 13 1 2 3v11l-5-1-7-6-17-1v68l4 2 3 3v2h-29v-3l4-4h2v-14l-1-32v-22l-20 1-8 7h-1v-14z" fill="#9B9B99"/>
<path transform="translate(1508,471)" d="m0 0h29l10 5 1 1v12h-5l-3-8-11-3-17 1-13 4-4 8-2 5-1 19v11l6 11 2 4 15 6h10l8-2 11-5h3l-3 9-5 4-10 2-12 1-19-4-11-7-6-7-5-9-3-8 1-16 4-10 6-11 13-9z" fill="#999997"/>
<path transform="translate(321,281)" d="m0 0h1l1 76-5-1-22-12-28-15-5-3-9 3-4 2-2 9-5 4h-2l-1-18 10-5 18-8 25-13 19-12zm-10 18-15 9-23 12 4 3 28 15 8 4 1-43z" fill="#454848"/>
<path transform="translate(1097,471)" d="m0 0h25l6 4v12h-7l-4-7-10-2h-5l-7 5v12l4 2 10 8 17 12 3 4 1 3v17l-5 6-6 5-12 4-21-2-6-6v-15l5 1 8 11 1 1h12l9-1 3-8-1-6-2-5-5-2-19-13-8-9-1-2v-16l9-10z" fill="#989896"/>
<path transform="translate(1161,473)" d="m0 0h72l1 2v10h-7l-5-5-19-1 2 68 8 5-1 2h-29v-3l6-9v-62h-18l-9 7-2-1-1-8z" fill="#989896"/>
<path transform="translate(1685,471)" d="m0 0 20 1 5 1v4l-4 1-2 70 6 2 2 3-1 1h-27l1-4 3-4v-67l-5-2z" fill="#989896"/>
<path transform="translate(345,280)" d="m0 0 7 4 16 10 23 12 22 10 39 16 6 3-1 21-8-6v-10l-33-13-23-10-22-11-18-11-8-6z" fill="#464949"/>
<path transform="translate(331,266)" d="m0 0h5l1 21 1 115-3 5-3-1-3-4 1-135z" fill="#797B7A"/>
<path transform="translate(384,225)" d="m0 0 11 3 17 9 10 8 9 9 10 15 6 15 3 13v5l-5-1-4-2-4-17-4-10-8-12-7-8-14-11-16-8-10-3 3-3z" fill="#747675"/>
<path transform="translate(304,231)" d="m0 0h3v6l-14 9-10 9-9 10-8 16-3 5-9 3 1-6 8-16 7-11 11-11 10-7 11-6z" fill="#747675"/>
<path transform="translate(464,625)" d="m0 0h16l12 5-5 4-12 6-3 1h-11l-16-7 4-3z" fill="#727473"/>
<path transform="translate(209,96)" d="m0 0h15l-6 9-8 8-8 4-18 4 2-6 9-12 10-6z" fill="#727473"/>
<path transform="translate(222,598)" d="m0 0 10 3 10 5 8 9 6 14v2l-9-3-12-6-8-9-5-13z" fill="#747574"/>
<path transform="translate(221,625)" d="m0 0h15l16 6 4 2-13 6-6 2h-8l-14-5-6-4v-2z" fill="#737574"/>
<path transform="translate(509,576)" d="m0 0h3l-2 13-5 10-9 8-10 6h-2l3-15 5-9 5-5 8-6z" fill="#737574"/>
<path transform="translate(509,603)" d="m0 0h15l6 2-2 4-9 7-10 4h-10l-12-4-1-2 16-9z" fill="#737573"/>
<path transform="translate(188,576)" d="m0 0 5 1 11 8 6 9 4 15v3l-4-1-11-7-7-8-3-7z" fill="#737574"/>
<path transform="translate(175,603)" d="m0 0h16l12 5 10 6-2 2-14 4-9-1-12-6-8-6 1-2z" fill="#737574"/>
<path transform="translate(474,598)" d="m0 0h2l-1 8-4 9-7 8-19 8 2-9 5-10 9-8z" fill="#737574"/>
<path transform="translate(540,550)" d="m0 0h2v17l-5 10-5 5-9 7h-2l1-17 5-10 5-6z" fill="#737573"/>
<path transform="translate(477,97)" d="m0 0h12l10 3 8 6 9 14-3 1-16-4-10-6-8-9z" fill="#737574"/>
<path transform="translate(158,550)" d="m0 0 4 2 8 7 6 8 2 7v15l-5-3-10-9-5-10-1-5v-11z" fill="#737574"/>
<path transform="translate(547,576)" d="m0 0h17l1 2-7 8-9 6-4 2-8 1-12-3-2-2 16-11z" fill="#737574"/>
<path transform="translate(132,521)" d="m0 0 4 2 8 10 4 10v11l-2 7-4-2-9-11-3-8v-15z" fill="#737574"/>
<path transform="translate(140,575)" d="m0 0h8l9 2 12 7 7 5v2l-5 2-12 1-9-3-9-6-7-7 1-2z" fill="#737574"/>
<path transform="translate(586,543)" d="m0 0h9l-4 8-5 6-10 6-7 2h-9l-4-1 2-4 7-7 10-7z" fill="#737574"/>
<path transform="translate(566,521)" d="m0 0h2l1 4v18l-3 6-9 10-4 2-1-5v-13l4-10 7-9z" fill="#737574"/>
<path transform="translate(80,508)" d="m0 0 10 1 10 4 10 9 7 9-1 2h-8l-9-2-8-6-6-7z" fill="#737574"/>
<path transform="translate(586,489)" d="m0 0h3l3 8 1 11-2 9-9 13h-2l-3-9v-14l4-10z" fill="#727473"/>
<path transform="translate(105,544)" d="m0 0h13l12 5 12 11 1 3-2 1h-15l-8-4-9-8-4-6z" fill="#737473"/>
<path transform="translate(615,508)" d="m0 0 3 1-3 7-6 9-9 6-10 2h-7l2-5 8-10 6-5 10-4z" fill="#747574"/>
<path transform="translate(635,470)" d="m0 0 2 2-6 14-6 7-10 5-11 1 8-15 7-7 10-5z" fill="#737574"/>
<path transform="translate(63,470)" d="m0 0 13 4 9 7 6 9 4 7v2l-9-1-9-4-7-6-7-14z" fill="#737574"/>
<path transform="translate(111,488)" d="m0 0 4 4 6 12 2 8-1 10-3 8-5-5-6-10-1-2v-15z" fill="#737574"/>
<path transform="translate(95,455)" d="m0 0 3 3 5 12 1 11-5 14-1 2h-2l-7-15-1-8 4-13z" fill="#737574"/>
<path transform="translate(603,455)" d="m0 0 3 3 4 9 1 12-3 9-5 9-3-3-4-11v-10l4-12z" fill="#747675"/>
<path transform="translate(647,431)" d="m0 0h2l-1 8-5 12-5 6-8 4-9 2 6-16 9-10z" fill="#737574"/>
<path transform="translate(50,431)" d="m0 0 9 3 10 8 7 14 2 7-6-1-10-5-6-7-5-11z" fill="#737574"/>
<path transform="translate(654,392)" d="m0 0h3l-1 11-4 11-9 8-6 3-4-1 4-15 6-9 8-6z" fill="#737574"/>
<path transform="translate(43,392)" d="m0 0 10 5 7 8 4 9 2 8v4l-6-2-9-6-6-9-2-8z" fill="#747574"/>
<path transform="translate(40,352)" d="m0 0 5 2 5 4 6 9 2 6 2 16-5-2-10-9-4-8-1-5z" fill="#747675"/>
<path transform="translate(67,235)" d="m0 0 4 4 4 11v10l-5 15h-2l-8-16v-8l5-13z" fill="#737574"/>
<path transform="translate(614,422)" d="m0 0h2l7 11 2 7-1 11-4 10-2 1-7-14-1-4v-9z" fill="#747675"/>
<path transform="translate(77,387)" d="m0 0h2l2 10v9l-3 9-8 10h-2l-3-13 1-9 5-10z" fill="#737574"/>
<path transform="translate(44,312)" d="m0 0 4 2 6 7 4 10v20l-8-6-6-9-2-11z" fill="#737574"/>
<path transform="translate(653,312)" d="m0 0h2l2 9v9l-3 9-9 10-3 1-1-2v-14l3-10 4-6z" fill="#747675"/>
<path transform="translate(631,235)" d="m0 0 3 3 4 10 1 11-4 10-4 5h-2l-4-11-1-10 2-10z" fill="#747574"/>
<path transform="translate(657,352)" d="m0 0h2v13l-2 8-6 9-9 6h-2l1-14 5-12 8-8z" fill="#747675"/>
<path transform="translate(165,112)" d="m0 0h2v12l-5 12-12 12h-2v-16l5-10 10-9z" fill="#737473"/>
<path transform="translate(83,422)" d="m0 0h2l4 12v13l-7 14-2 1-5-15v-10l4-9z" fill="#737574"/>
<path transform="translate(644,273)" d="m0 0 3 1 3 12v9l-6 12-4 5h-2l-2-6-1-12 2-9z" fill="#737574"/>
<path transform="translate(590,167)" d="m0 0 3 1 7 10 3 7v11l-3 9h-3l-8-14-1-4v-13z" fill="#747674"/>
<path transform="translate(85,199)" d="m0 0h2l4 11v12l-4 10-4 8-3-4-3-9v-12z" fill="#737574"/>
<path transform="translate(134,137)" d="m0 0h2l1 14-3 10-8 11-4 2-2-8v-10l4-8 9-10z" fill="#737574"/>
<path transform="translate(619,316)" d="m0 0 5 2 8 6 5 7 2 6 1 14-4-2-8-6-4-5-3-7z" fill="#747675"/>
<path transform="translate(53,273)" d="m0 0 3 1 7 13 1 4v8l-3 13-5-5-6-9-1-10 3-13z" fill="#737574"/>
<path transform="translate(623,352)" d="m0 0 5 2 7 8 3 6 1 5v9l-1 6-4-2-8-9-3-6-1-6v-10z" fill="#747675"/>
<path transform="translate(108,167)" d="m0 0 2 2 1 5v15l-6 12-5 5-4-13 1-10 6-11z" fill="#737574"/>
<path transform="translate(620,387)" d="m0 0 4 2 6 7 3 6 1 11-3 12-5-4-7-12v-17z" fill="#737574"/>
<path transform="translate(75,351)" d="m0 0h2v17l-4 10-9 10h-2l-1-3v-14l4-10z" fill="#757675"/>
<path transform="translate(612,200)" d="m0 0h3l6 12 2 7-1 9-4 10h-3l-6-15-1-9 3-12z" fill="#747574"/>
<path transform="translate(563,138)" d="m0 0 5 2 7 9 3 7 1 8-2 11-5-4-7-10-3-7v-15z" fill="#737574"/>
<path transform="translate(77,316)" d="m0 0 3 1-2 15-5 10-10 8-3 1v-9l2-9 6-10z" fill="#737574"/>
<path transform="translate(600,248)" d="m0 0 8 2 10 6 6 9 4 10v2l-9-3-8-4-6-7-5-11z" fill="#737574"/>
<path transform="translate(111,217)" d="m0 0h4l-1 5-5 8-5 5-6 4-11 3-3-1 8-14 7-6 7-3z" fill="#737574"/>
<path transform="translate(126,188)" d="m0 0h9l-2 6-9 10-10 4-5 1h-7l4-8 6-7 9-5z" fill="#737574"/>
<path transform="translate(584,217)" d="m0 0 9 1 8 3 7 6 7 13-1 2-12-3-9-6-9-13z" fill="#737574"/>
<path transform="translate(95,249)" d="m0 0h4l-3 10-6 10-8 5-11 3 3-9 5-9 8-7z" fill="#737574"/>
<path transform="translate(85,282)" d="m0 0h2l-1 9-4 10-7 7-10 5h-2l3-14 6-9 5-4z" fill="#737574"/>
<path transform="translate(563,187)" d="m0 0 16 2 9 6 8 10 1 4-15-2-8-5-8-9z" fill="#747675"/>
<path transform="translate(144,161)" d="m0 0h14v4l-8 8-7 4-4 1h-15l2-4 4-5 8-6z" fill="#737574"/>
<path transform="translate(532,112)" d="m0 0 5 2 10 9 4 9v15l-4-2-8-8-4-6-2-6z" fill="#747574"/>
<path transform="translate(540,161)" d="m0 0h15l10 5 5 4 5 6v2h-15l-9-4-10-9z" fill="#737574"/>
<path transform="translate(520,136)" d="m0 0h7l9 3 9 6 5 5-1 1-8 1h-10l-10-5-8-7v-2z" fill="#747675"/>
<path transform="translate(611,282)" d="m0 0 6 1 9 6 5 6 3 8 2 10-6-2-8-6-6-7-5-15z" fill="#737574"/>
<path transform="translate(173,136)" d="m0 0 11 2 2 1-1 3-10 7-7 3h-14l-4-1 2-4 9-7 7-3z" fill="#737574"/>
<path transform="translate(417,631)" d="m0 0h8l3 3 1 6-5 5h-6l-4-4v-7z" fill="#737574"/>
<path transform="translate(276,631)" d="m0 0h7l3 3 1 6-4 5h-7l-3-3-1-6z" fill="#737473"/>
<path transform="translate(332,200)" d="m0 0h8l1 18-1 1h-6l-1-1-1-8z" fill="#737574"/>
<path transform="translate(305,580)" d="m0 0" fill="#979795"/>
</svg>
