<?xml version="1.0" encoding="UTF-8"?>
<svg version="1.1" viewBox="0 0 2048 716" width="1500" height="525" xmlns="http://www.w3.org/2000/svg">
<path transform="translate(958,133)" d="m0 0h138l26 9 18 12 6 7 9 14 4 25v8l-4 19-14 22-4 5-11 9-6 5-7 4 5 12 14 20 13 19 13 18 9 12 7 7 14 16 21 13 6 3v9l-7 2h-16l-19-2-24-8-10-8-11-10-14-19-12-18-12-19-9-14-10-13v-2l-31-2-8-1 2 73 1 14 4 7 8 4 16 5-2 11h-32l-71-2 1-8 1-3 18-6 5-4 2-9 1-10v-198l-4-10-21-7-5-4 1-6zm75 18-1 1-1 8-2 102 5 5h43l18-9 12-16 5-13v-33l-9-24-10-10-16-9-8-2z" fill="#464949"/>
<path transform="translate(1366,126)" d="m0 0h26l33 6 11 4 16 8 19 12 10 9 7 7 16 25 9 23 4 22v40l-6 27-8 21-7 12-10 15-18 18-23 14-12 6-21 7-28 4-33-2-15-3-16-4-32-16-7-7-8-7-7-6-11-16-6-10-10-25-4-18v-52l11-35 12-21 12-14 5-6 16-12 19-10 17-8 25-6zm-9 20-24 7-18 13-7 6-12 19-4 8-8 24-2 19v30l4 24 9 27 6 12 10 14 11 14 17 11 8 5 27 7h18l21-5 16-8 9-7 6-5 13-22 9-26 2-11v-49l-6-30-10-24-7-12-12-16-11-9-8-5-14-7-18-4z" fill="#464949"/>
<path transform="translate(1848,126)" d="m0 0 9 2 5 10 30 75 16 41 18 46 22 54 6 15 9 10 22 11 2 4-1 5-2 2h-100l-2-9 4-4 18-5-5-24-18-48-1-3-67-2h-18l-13 38-8 21-1 13 9 6 14 7 1 5-4 5h-26l-59-2v-9l10-5 15-6 5-8 14-28 43-108 13-32 15-38 11-28 5-5zm-13 67-22 58-9 21 1 10 1 3h63l2-10-20-56-8-22-4-3z" fill="#464949"/>
<path transform="translate(671,126)" d="m0 0 30 4h186l21-1v54l-2 6h-11l-7-24-11-7-16-2-40-2-11-1 1 54 1 95 1 68 4 10 7 3 15 5 4 7-1 3-6 3h-100l-2-11 17-6 9-5 4-13 1-211-64 1-14 7-12 24-2 2h-8l-1-1v-23l4-31z" fill="#464949"/>
<path transform="translate(296,151)" d="m0 0h76l12 3 12 7 8 8 8 14 5 15 3 14 2 27 2 5 8 10 6 10 5 14 2 10 2 21 4 5v20l-5 16-1 9 3 16 4 14 9 21v2l-18 1 6 17v7l-7 8-14 14-8 7-7 7-8 7-16 15-14 12-12 11-3 1-1-1v-108l1-26 5-3 32-15 7-4 1-25-4-2-9 3-23 12-13 6h-2l1 22-11 14-6 7-4-1-9-10-7-10 2-22-6-2-28-16-4-3-6-1v27l5 2 25 15 8 5 1 1v93l-1 41-7-5-9-11-7-7-9-11-12-13-9-11-8-9-9-14v-8l12-36 1-5v-13l-1-4-2-29-5-15v-25l5-3 5-22 5-13 10-14 7-7 5-6 14-9 15-7 6-1-2-9-3-14-6-15-12-25zm13 7 1 7 10 21 5 13 1 1h7l1-5-6-22-4-12-2-3zm19 0 1 7 7 23 3 11h11v-11l-4-25-2-5zm23 0 3 22 2 15 3 3 6-2v-12l-1-19-1-7zm17 1v15l1 21h8l1-15v-20l-2-1zm15 4-1 7v26l3 2h3l3-15 1-15-6-5zm13 10-3 14-1 7v8l4 3h2l4-17v-10l-4-5zm9 16-4 18 1 7 3 1 5-12v-7l-4-7zm-38 13-9 3-1 1v20l2 1 14-7h8l16 6h5l-2-6-7-9-7-6-6-3zm-38 4-1 1v18l1 5h22v-23l-1-1zm82 6-3 5v8l3 6h3v-12l-2-7zm-38 13-10 7-5 4-36 2v-10l-9 2-14 7-12 9-7 8-7 10-7 15-2 7v9l16-8 15-9 17-12 14-12 9-9 5 2 8 8 16 12 15 10 23 13 19 9 15 6h2v-17l-5-16-8-15-9-11-7-6-13-8-15-6zm-37 28-10 9-11 9-17 12-24 14-18 10v17l3 10 3 1 14-8h6l21 12 23 13v25l9 11 4-1 8-11 1-24 28-14 19-9 5-2 12 5 21 11 3 2 4-1 4-13v-13l-5-5-20-9-18-8-25-14-20-14-10-8-8-7zm78 86-1 1-1 27-23 11-22 10v113l6-2 10-10 3-2 1-87 19-14 17-13 7-6 3-13-1-5-16-10zm-148 1-3 2v24l3 7 12 13 9 10 3 3v83l7 8 8 8h2v-111l-16-9-21-13-2-25zm171 29-2 4v19l4 13h10l-1-8-7-20-3-8zm-12 10-17 13-14 11-2 2v33l1 39 4-1 11-9 7-7 6-5 1-53 3-2 1 13 2 33 7-4 6-6v-7l-10-31-3-17-1-2zm-159 5-10 33-5 13 1 6 7 9 2 1 2-24 4-14 1 48 9 11 5 5h2l1-8v-61l-4-4h-2l-2-5-10-10z" fill="#4C4E4E"/>
<path transform="translate(1569,133)" d="m0 0h105l-2 11-16 4-5 2-4 8-1 6v192l2 21 13 8 15 5v9l-74 2h-31l-2-11 10-4 13-5 4-4 1-3v-217l-6-8-18-4-2-1z" fill="#454848"/>
<path transform="translate(327,76)" d="m0 0h44l24 3 24 5 30 10 18 8 20 11 19 13 10 8 13 11 10 9 10 10 8 10 12 16 8 13 9 16 10 22 10 30 5 23 3 20v49l-3 22-8 32-10 28-11 22-14 22-10 13-12 14-15 16-15 13-16 12-20 12-17 9-20 8-24 8-24 5-23 3h-42l-24-3-23-5-20-6-19-7-21-10-15-9-17-12-10-8-11-10-8-7-10-10-11-14-9-12-12-19-13-25-7-17-8-28-4-20-2-16v-51l3-22 6-25 8-23 8-18 12-23 11-16 10-13 9-10 7-8 11-11 11-9 10-8 24-16 23-12 17-7 25-8 29-6zm0 7-26 4-25 6-20 7-20 9-19 10-12 8-16 12-15 13-10 9-9 10-11 14-10 14-10 17-8 16-7 16-9 28-4 19-3 23v43l4 28 8 30 10 25 9 19 14 22 11 14 11 13 21 21 14 11 24 16 17 9 18 8 33 11 21 4 29 3h28l22-2 29-6 33-11 29-14 25-17 9-7 10-9 8-7 15-15 10-13 9-12 15-25 10-22 6-16 7-27 4-24 1-9v-41l-4-28-6-24-10-28-8-16-8-15-9-14-12-16-14-15-4-5-8-7-14-12-14-10-16-10-23-12-16-7-25-8-17-4-27-4z" fill="#4B4E4E"/>
<path transform="translate(332,125)" d="m0 0h34l23 3 21 5 20 7 23 11 16 10 16 12 7 7 8 7 10 10 13 17 10 15 9 17 7 16 7 22 5 23 1 9v43l-4 25-7 25-8 19-9 17-12 18-9 11-9 10-7 8-10 9-16 12-20 12-23 11-27 9-19 4-16 2h-30l-23-3-25-6-21-8-16-8-16-9-16-12-13-10-14-14-11-14-10-14-10-17-9-19-6-17-4-15-3-15-1-9v-46l4-24 4-16 8-21 8-16 9-16 8-11 9-11 9-10 7-8 8-7 13-10 20-13 21-11 24-8 26-6zm5 7-18 2-24 5-23 8-25 12-12 8-13 10-13 11-14 14-12 16-10 15-13 25-10 30-4 19-1 8v43l4 25 6 21 8 20 10 19 12 17 9 11 11 12 11 11 20 15 13 8 16 8 20 8 15 5 21 4 8 1h42l24-4 21-6 19-8 16-8 14-9 17-13 15-14 9-9 12-16 10-15 8-16 5-11 8-24 5-24 1-8v-40l-4-24-6-22-8-19-8-16-7-12-8-11-9-11-11-12-8-8-17-13-17-11-19-10-18-7-22-6-26-4z" fill="#4B4E4D"/>
<path transform="translate(927,459)" d="m0 0h17l10 9 11 12 8 10 11 13 9 11 3 3v5h4l-1-54-5-3v-6h24l-2 7-4 3-2 69-1 11-9-3-10-11-8-10-24-28-5-6-2-6-4-1v59l6 2 3 3-1 1h-26l3-5 2-3v-71l-7-5-1-5z" fill="#999997"/>
<path transform="translate(1889,459)" d="m0 0h16l14 14 7 8 9 10 1 7 4-1 10 11 8 10 2 3 3 1v-56l-9-2 2-5h22l-1 6-5 1v83l-9-2-7-7-7-8-11-12-11-14-18-21-2-1 1 54 7 9v2h-25l2-4 3-3 1-74-5-2-2-2z" fill="#989896"/>
<path transform="translate(1253,459)" d="m0 0h36l18 6 5 5 4 7v14l-6 10-6 7 2 5 11 18 12 14 2 4h-15l-8-8-7-8-10-13-4-6-11-1 1 28 5 7v1h-31l4-7h5l-1-13-2-61-6-7zm22 7-2 3v35h21l8-10v-9l-2-11-10-8z" fill="#999997"/>
<path transform="translate(1804,459)" d="m0 0h27l20 12 6 7 5 12v26l-7 16-11 9-7 6-6 2h-32l-16-10-6-7-5-8-2-6v-25l11-20 11-9zm8 5-15 6-10 13-1 2v31l9 18 10 8 12 2h9l11-6 7-9 3-6 2-15-5-23-7-11-10-8-11-2z" fill="#989897"/>
<path transform="translate(1361,459)" d="m0 0h26l1 2-1 5h-6l1 51 2 14 6 6v2l13 2h6l14-6 4-12v-50l-8-11 4-2 5-1h15v7l-4 2v14l-2 47-7 13-9 6-10 2-16 1-18-6-7-9-3-5-2-50-1-11-5-3 1-7z" fill="#989896"/>
<path transform="translate(837,459)" d="m0 0h23l17 9 9 10 5 10 2 7v16l-8 20-7 8-9 7-12 3-11 2-8-1-14-4-12-8-9-14-2-5v-25l6-14 9-11 16-8zm3 5-14 6-6 9-3 6v34l9 15 8 8 4 2h20l12-8 7-13 2-11v-10l-4-18-9-11-5-5-17-4z" fill="#989896"/>
<path transform="translate(722,459)" d="m0 0h33l10 5v17l-6-4-10-8-12-2-9 1-10 3-10 13-2 4v29l9 17 7 5 7 2h19l16-9 3-1-1 12-5 5-2 1-22 2h-7l-18-4-13-9-5-5-5-8-2-7v-24l7-16 4-2v-2l10-8z" fill="#989896"/>
<path transform="translate(1517,459)" d="m0 0h27l12 5 2 2v13h-5l-2-9-10-2-10-1-16 2-10 4-4 8-3 7v32l8 14 12 6 3 1h18l17-8 1 3-5 10-5 3-17 2-11-1-17-4-11-8-7-9-4-8-3-9 1-13 2-8 8-16 15-11z" fill="#989896"/>
<path transform="translate(1074,459)" d="m0 0h25l6 4v14h-7l-4-8-16-2-7 5v13l17 13 17 12 3 7v18l-12 12-12 4-16-1-8-1-6-6v-16l4-1 4 5 5 8 4 2 17-1 4-1 3-8-1-6-2-6-5-2-22-15-9-11v-16l8-10 8-5z" fill="#999997"/>
<path transform="translate(1591,459)" d="m0 0 72 2 6 2 1 3v11l-5-1-6-4-3-3h-17v71l7 7v2h-32l4-7h4l-2-74-20 1-10 8h-1v-14z" fill="#999997"/>
<path transform="translate(1141,462)" d="m0 0h77l2 3v9l-1 1h-6l-7-6-20-1 1 16 2 58 8 4v3h-33l5-9 3-5v-66h-19l-11 8-2-2-1-7z" fill="#989896"/>
<path transform="translate(1706,459)" d="m0 0 25 2 1 5-3 2-1 10-2 65 4 1 5 3-1 2h-30l2-4 3-5 1-72-6-1-1-2z" fill="#989896"/>
<path transform="translate(385,555)" d="m0 0 5 1 4 21v6l-6 2-24 3-4-2-1-5v-11l1-1 14-1v-5l-19 2v22l-1 1h-14l-14-1-6-2 1-14 1-3h13l3 1v-5l-17-1-3-1-1 13-2 10h-5l-1-6 4-23h11l19 2 1 1v12l-2 5h-15v4l21 1v-20l1-3 29-2 2 6 1 11-4 2-11 1-1 5 17-2h6l-2-8-2-14z" fill="#D6BF95"/>
<path transform="translate(325,278)" d="m0 0 3 1v59l-6-1-26-14-14-8h-7l-6 2-1 7-4 3h-2v-15l8-4 18-8 22-12zm-6 13-11 6-19 10 1 4 29 15h1l1-20v-13z" fill="#4A4D4D"/>
<path transform="translate(346,277)" d="m0 0 4 1 14 8 16 9 24 11 29 12 5 3-1 15-4-1-3-3-1-7-36-15-29-14-18-12z" fill="#4C4F4E"/>
<path transform="translate(335,264)" d="m0 0 4 1 1 21v90l-3 2-4-3v-21l1-89z" fill="#D6BF95"/>
<path transform="translate(247,534)" d="m0 0 9 2 9 6 6 9 3 9-1 3-12 5h-12l-11-5-2-3 4-3 6-2h10l6 1-8-5-6-9z" fill="#D6BF95"/>
<path transform="translate(194,495)" d="m0 0 6 2 7 7 4 9v12h-3l-1 4-2 1h-13l-10-5-7-7v-2l3-1h11l7 2 6 3-5-6-3-6z" fill="#D6BF95"/>
<path transform="translate(376,232)" d="m0 0h7l16 8 10 8 9 9 8 14 4 12 1 11-6-2-3-7-4-12-6-11-11-12-13-8-15-7z" fill="#D6BF95"/>
<path transform="translate(199,140)" d="m0 0h3v10l-6 12 4-1 3-1h12l2 4-10 7-3 1h-15l-3-5v-10l3-7 7-8zm-7 24-2 3 4-2z" fill="#D6BF95"/>
<path transform="translate(313,236)" d="m0 0h2v6l-11 7-11 10-7 10-5 11-5 2h-3l1-7 7-13 9-11 7-6 13-8z" fill="#D6BF95"/>
<path transform="translate(238,126)" d="m0 0h8l1 2-4 7-8 7-11 4-8 1 2-6 7-9 9-5z" fill="#D6BF95"/>
<path transform="translate(477,516)" d="m0 0 4 1v7l-4 9-5 6-10 6-3-1 1-9 5-9 5-5z" fill="#D6BF95"/>
<path transform="translate(219,516)" d="m0 0 5 1 6 4 5 6 4 9 1 8-6-1-9-7-4-5-2-6z" fill="#D6BF95"/>
<path transform="translate(449,534)" d="m0 0h3l-2 11-7 9-14 6h-1l1-9 5-8 8-6z" fill="#D6BF95"/>
<path transform="translate(454,127)" d="m0 0h8l10 3 8 8 4 7v2l-9-1-11-4-9-9-2-5z" fill="#D6BF95"/>
<path transform="translate(440,556)" d="m0 0h19l5 2-1 4-12 6h-13l-10-5 4-4z" fill="#D6BF95"/>
<path transform="translate(475,538)" d="m0 0h19l1 4-7 6-6 3h-14l-6-3 2-4z" fill="#D6BF95"/>
<path transform="translate(513,515)" d="m0 0 11 1-2 5-8 7-5 2h-13l-5-2 5-6 8-5z" fill="#D6BF95"/>
<path transform="translate(504,495)" d="m0 0 2 1v12l-5 10-9 7h-3v-12l5-10 8-7z" fill="#D6BF95"/>
<path transform="translate(206,538)" d="m0 0h19l12 7 1 3-9 3h-10l-10-5-6-5z" fill="#D6BF95"/>
<path transform="translate(542,445)" d="m0 0 3 2 2 7v10l-5 10-3 4-4-1-2-11 2-10 5-9z" fill="#D6BF95"/>
<path transform="translate(539,489)" d="m0 0h8v5l-6 7-11 6h-12l1-5 5-5 9-6z" fill="#D6BF95"/>
<path transform="translate(132,461)" d="m0 0h8l10 5 8 8 3 4-1 3h-9l-8-4-6-5-5-9z" fill="#D6BF95"/>
<path transform="translate(152,490)" d="m0 0h12l10 5 8 8-1 3-2 1h-9l-11-6-7-8z" fill="#D6BF95"/>
<path transform="translate(173,472)" d="m0 0 4 1 6 7 3 7v14l-1 2-4-2-5-5-4-7v-16z" fill="#D6BF95"/>
<path transform="translate(558,461)" d="m0 0h8l-1 7-9 10-8 3h-8l1-6 11-11z" fill="#D6BF95"/>
<path transform="translate(524,472)" d="m0 0h3l1 5v9l-2 7-6 8-5 3-1-2v-16l6-10z" fill="#D6BF95"/>
<path transform="translate(118,431)" d="m0 0h6l9 5 7 9 3 5v3l-10-1-9-6-6-11z" fill="#D6BF95"/>
<path transform="translate(580,430)" d="m0 0h1l-1 9-5 8-10 6h-8l1-5 7-10 9-6z" fill="#D6BF95"/>
<path transform="translate(156,445)" d="m0 0 5 4 4 8v18l-1 3h-3l-7-11-1-3v-12z" fill="#D6BF95"/>
<path transform="translate(143,419)" d="m0 0 4 2 3 7v15l-3 8-4-1-4-8v-15z" fill="#D6BF95"/>
<path transform="translate(120,240)" d="m0 0 3 1 4 8v13l-3 9h-3l-5-8-1-3v-9l4-10z" fill="#D6BF95"/>
<path transform="translate(554,419)" d="m0 0 4 2 3 7v12l-4 10h-4l-4-9v-9z" fill="#D6BF95"/>
<path transform="translate(589,399)" d="m0 0h3l-1 9-6 10-6 4-9 1 3-9 3-5 5-6z" fill="#D6BF95"/>
<path transform="translate(597,366)" d="m0 0 2 1-1 9-3 8-4 5-7 4h-4l1-9 6-11 8-6z" fill="#D6BF95"/>
<path transform="translate(101,367)" d="m0 0 7 2 8 9 4 12v4l-7-2-7-6-4-8-1-4z" fill="#D6BF95"/>
<path transform="translate(102,303)" d="m0 0 4 1 6 7 2 6v15l-5-1-6-7-2-5v-14z" fill="#D6BF95"/>
<path transform="translate(132,392)" d="m0 0h4l3 8v12l-5 9-3 1-4-9v-11z" fill="#D6BF95"/>
<path transform="translate(99,335)" d="m0 0 4 1 5 4 5 8 1 3 1 12-5-1-8-7-3-7z" fill="#D6BF95"/>
<path transform="translate(544,185)" d="m0 0 4 2 4 5 3 5v13l-3 6-5-5-4-8-1-4v-8z" fill="#D6BF95"/>
<path transform="translate(108,399)" d="m0 0 5 1 5 3 5 4 6 13v3l-7-1-8-5-5-8z" fill="#D6BF95"/>
<path transform="translate(563,392)" d="m0 0 4 1 4 6 2 5v9l-4 9-4-2-4-8v-14z" fill="#D6BF95"/>
<path transform="translate(589,270)" d="m0 0 2 1 2 7v12l-6 10-4 1-2-8v-8l3-9z" fill="#D6BF95"/>
<path transform="translate(128,363)" d="m0 0h3l1 6v12l-6 10-4 2-2-4v-14l5-9z" fill="#D6BF95"/>
<path transform="translate(595,302)" d="m0 0 3 2 1 3v10l-5 10-5 5h-3v-16l6-11z" fill="#D6BF95"/>
<path transform="translate(153,185)" d="m0 0 3 1 1 4v12l-6 11-4 2-3-9 1-9 6-10z" fill="#D6BF95"/>
<path transform="translate(563,211)" d="m0 0 4 4 4 9v9l-4 9-3-1-4-9-1-4v-8l3-8z" fill="#D5BE95"/>
<path transform="translate(568,306)" d="m0 0 5 1 8 7 4 10v8h-3l-8-6-4-6-2-9z" fill="#D6BF95"/>
<path transform="translate(599,334)" d="m0 0h1v14l-3 7-4 5-5 3-3-1 1-12 5-9z" fill="#D6BF95"/>
<path transform="translate(109,270)" d="m0 0 3 1 5 8 1 3v13l-1 6-5-2-5-8v-15z" fill="#D6BF95"/>
<path transform="translate(569,363)" d="m0 0 4 2 6 8 1 4v11l-2 4-4-2-4-5-2-3-1-11z" fill="#D6BF95"/>
<path transform="translate(540,225)" d="m0 0h7l8 4 7 8 2 4v3h-7l-8-4-7-8-2-3z" fill="#D6BF95"/>
<path transform="translate(135,211)" d="m0 0 3 1 2 6v12l-5 12h-3l-3-7v-13z" fill="#D6BF95"/>
<path transform="translate(174,160)" d="m0 0 3 1v16l-7 10-4 3-2-4v-11l4-8z" fill="#D6BF95"/>
<path transform="translate(577,240)" d="m0 0 4 2 2 5 1 15-6 9-4-4-1-3v-17z" fill="#D6BF95"/>
<path transform="translate(154,225)" d="m0 0h6l-2 6-6 9-8 4-8 1 1-6 4-6 7-6z" fill="#D6BF95"/>
<path transform="translate(134,278)" d="m0 0h3l-1 9-5 9-9 6h-4l1-9 6-10 6-4z" fill="#D6BF95"/>
<path transform="translate(552,251)" d="m0 0 9 1 8 6 6 12-1 3-7-2-8-5-4-6z" fill="#D6BF95"/>
<path transform="translate(168,201)" d="m0 0 8 1-2 5-5 6-7 4-3 1h-9l2-6 5-6 7-4z" fill="#D6BF95"/>
<path transform="translate(523,201)" d="m0 0h10l8 4 8 9v4h-8l-10-5-7-9z" fill="#D6BF95"/>
<path transform="translate(127,306)" d="m0 0 4 1-1 10-3 8-8 7h-4l1-13 7-9z" fill="#D6BF95"/>
<path transform="translate(522,162)" d="m0 0 6 1 5 7 2 5v13l-1 2-4-2-6-7-2-6z" fill="#D6BF95"/>
<path transform="translate(127,334)" d="m0 0 2 1v13l-5 10-5 5-3-1v-13l5-10z" fill="#D6BF95"/>
<path transform="translate(141,251)" d="m0 0h5l-1 7-4 7-7 6-9 2-1-2 7-13 6-5z" fill="#D6BF95"/>
<path transform="translate(183,179)" d="m0 0h10l2 1-2 5-9 7-3 1h-14l1-3 5-5 7-5z" fill="#D6BF95"/>
<path transform="translate(562,278)" d="m0 0 8 2 7 6 4 11v5l-5-1-10-9-3-6z" fill="#D6BF95"/>
<path transform="translate(498,140)" d="m0 0 4 2 8 7 3 6v12l-4-1-7-7-3-5-1-4z" fill="#D6BF95"/>
<path transform="translate(505,179)" d="m0 0h8l8 2 6 4 6 8h-15l-9-6-5-5z" fill="#D6BF95"/>
<path transform="translate(484,160)" d="m0 0h14l10 6 3 3v2l-2 1h-14l-10-6-3-3v-2z" fill="#D6BF95"/>
<path transform="translate(571,335)" d="m0 0 4 1 5 5 3 4v19l-7-6-5-8z" fill="#D6BF95"/>
<path transform="translate(290,560)" d="m0 0 7 1 2 3-1 6-2 2-7-1-2-3 1-5z" fill="#D6BF95"/>
<path transform="translate(405,560)" d="m0 0h5l4 5-2 6-3 1-6-2-1-7z" fill="#D6BF95"/>
<path transform="translate(337,211)" d="m0 0 5 1v14h-6v-14z" fill="#D6BF95"/>
</svg>
